{
	"asset":{
		"generator":"Khronos glTF Blender I/O v4.1.63",
		"version":"2.0"
	},
	"scene":0,
	"scenes":[
		{
			"name":"Scene",
			"nodes":[
				0
			]
		}
	],
	"nodes":[
		{
			"mesh":0,
			"name":"Pants",
			"rotation":[
				0.7071068286895752,
				0,
				0,
				0.7071068286895752
			],
			"scale":[
				0.009999999776482582,
				0.009999999776482582,
				0.009999999776482582
			]
		}
	],
	"meshes":[
		{
			"name":"Mesh.001",
			"primitives":[
				{
					"attributes":{
						"POSITION":0,
						"NORMAL":1,
						"TEXCOORD_0":2
					},
					"indices":3
				}
			]
		}
	],
	"accessors":[
		{
			"bufferView":0,
			"componentType":5126,
			"count":93986,
			"max":[
				18.459842681884766,
				14.029963493347168,
				-13.188192367553711
			],
			"min":[
				-18.501466751098633,
				-17.44173812866211,
				-115.4783935546875
			],
			"type":"VEC3"
		},
		{
			"bufferView":1,
			"componentType":5126,
			"count":93986,
			"type":"VEC3"
		},
		{
			"bufferView":2,
			"componentType":5126,
			"count":93986,
			"type":"VEC2"
		},
		{
			"bufferView":3,
			"componentType":5125,
			"count":482796,
			"type":"SCALAR"
		}
	],
	"bufferViews":[
		{
			"buffer":0,
			"byteLength":1127832,
			"byteOffset":0,
			"target":34962
		},
		{
			"buffer":0,
			"byteLength":1127832,
			"byteOffset":1127832,
			"target":34962
		},
		{
			"buffer":0,
			"byteLength":751888,
			"byteOffset":2255664,
			"target":34962
		},
		{
			"buffer":0,
			"byteLength":1931184,
			"byteOffset":3007552,
			"target":34963
		}
	],
	"buffers":[
		{
			"byteLength":4938736,
			"uri":"pants.bin"
		}
	]
}
