{
	"asset":{
		"generator":"Khronos glTF Blender I/O v4.1.63",
		"version":"2.0"
	},
	"scene":0,
	"scenes":[
		{
			"extras":{
				"NWBusyDrawing":"",
				"NWLazySource":"Image Texture.003",
				"NWLazyTarget":"Bump",
				"NWSourceSocket":1
			},
			"name":"Scene",
			"nodes":[
				0
			]
		}
	],
	"nodes":[
		{
			"mesh":0,
			"name":"2_Pockets",
			"rotation":[
				0.7071068286895752,
				0,
				0,
				0.7071068286895752
			],
			"scale":[
				0.009999999776482582,
				0.009999999776482582,
				0.009999999776482582
			]
		}
	],
	"meshes":[
		{
			"name":"Mesh.001",
			"primitives":[
				{
					"attributes":{
						"POSITION":0,
						"NORMAL":1,
						"TEXCOORD_0":2
					},
					"indices":3
				}
			]
		}
	],
	"accessors":[
		{
			"bufferView":0,
			"componentType":5126,
			"count":1469,
			"max":[
				14.450920104980469,
				-7.461887359619141,
				-104.91130065917969
			],
			"min":[
				-14.434816360473633,
				-13.652969360351562,
				-106.70521545410156
			],
			"type":"VEC3"
		},
		{
			"bufferView":1,
			"componentType":5126,
			"count":1469,
			"type":"VEC3"
		},
		{
			"bufferView":2,
			"componentType":5126,
			"count":1469,
			"type":"VEC2"
		},
		{
			"bufferView":3,
			"componentType":5123,
			"count":6630,
			"type":"SCALAR"
		}
	],
	"bufferViews":[
		{
			"buffer":0,
			"byteLength":17628,
			"byteOffset":0,
			"target":34962
		},
		{
			"buffer":0,
			"byteLength":17628,
			"byteOffset":17628,
			"target":34962
		},
		{
			"buffer":0,
			"byteLength":11752,
			"byteOffset":35256,
			"target":34962
		},
		{
			"buffer":0,
			"byteLength":13260,
			"byteOffset":47008,
			"target":34963
		}
	],
	"buffers":[
		{
			"byteLength":60268,
			"uri":"2_Pockets.bin"
		}
	]
}
