{
	"asset":{
		"generator":"Khronos glTF Blender I/O v4.1.63",
		"version":"2.0"
	},
	"scene":0,
	"scenes":[
		{
			"extras":{
				"NWBusyDrawing":"",
				"NWLazySource":"Image Texture.003",
				"NWLazyTarget":"Bump",
				"NWSourceSocket":1
			},
			"name":"Scene",
			"nodes":[
				0
			]
		}
	],
	"nodes":[
		{
			"mesh":0,
			"name":"Front_DoublePleats",
			"rotation":[
				0.7071068286895752,
				0,
				0,
				0.7071068286895752
			],
			"scale":[
				0.009999999776482582,
				0.009999999776482582,
				0.009999999776482582
			]
		}
	],
	"meshes":[
		{
			"name":"Mesh.003",
			"primitives":[
				{
					"attributes":{
						"POSITION":0,
						"NORMAL":1,
						"TEXCOORD_0":2
					},
					"indices":3
				}
			]
		}
	],
	"accessors":[
		{
			"bufferView":0,
			"componentType":5126,
			"count":38598,
			"max":[
				18.404489517211914,
				14.030781745910645,
				-13.628637313842773
			],
			"min":[
				-18.421831130981445,
				-11.19812297821045,
				-112.80477142333984
			],
			"type":"VEC3"
		},
		{
			"bufferView":1,
			"componentType":5126,
			"count":38598,
			"type":"VEC3"
		},
		{
			"bufferView":2,
			"componentType":5126,
			"count":38598,
			"type":"VEC2"
		},
		{
			"bufferView":3,
			"componentType":5123,
			"count":200796,
			"type":"SCALAR"
		}
	],
	"bufferViews":[
		{
			"buffer":0,
			"byteLength":463176,
			"byteOffset":0,
			"target":34962
		},
		{
			"buffer":0,
			"byteLength":463176,
			"byteOffset":463176,
			"target":34962
		},
		{
			"buffer":0,
			"byteLength":308784,
			"byteOffset":926352,
			"target":34962
		},
		{
			"buffer":0,
			"byteLength":401592,
			"byteOffset":1235136,
			"target":34963
		}
	],
	"buffers":[
		{
			"byteLength":1636728,
			"uri":"Front_DoublePleats.bin"
		}
	]
}
