{
	"asset":{
		"generator":"Khronos glTF Blender I/O v4.1.63",
		"version":"2.0"
	},
	"scene":0,
	"scenes":[
		{
			"extras":{
				"NWBusyDrawing":"",
				"NWLazySource":"Image Texture.003",
				"NWLazyTarget":"Bump",
				"NWSourceSocket":1
			},
			"name":"Scene",
			"nodes":[
				0
			]
		}
	],
	"nodes":[
		{
			"mesh":0,
			"name":"Front_SinglePleats",
			"rotation":[
				0.7071068286895752,
				0,
				0,
				0.7071068286895752
			],
			"scale":[
				0.009999999776482582,
				0.009999999776482582,
				0.009999999776482582
			]
		}
	],
	"meshes":[
		{
			"name":"Mesh.002",
			"primitives":[
				{
					"attributes":{
						"POSITION":0,
						"NORMAL":1,
						"TEXCOORD_0":2
					},
					"indices":3
				}
			]
		}
	],
	"accessors":[
		{
			"bufferView":0,
			"componentType":5126,
			"count":39245,
			"max":[
				18.403606414794922,
				14.029963493347168,
				-13.629447937011719
			],
			"min":[
				-18.418607711791992,
				-11.19845962524414,
				-112.80476379394531
			],
			"type":"VEC3"
		},
		{
			"bufferView":1,
			"componentType":5126,
			"count":39245,
			"type":"VEC3"
		},
		{
			"bufferView":2,
			"componentType":5126,
			"count":39245,
			"type":"VEC2"
		},
		{
			"bufferView":3,
			"componentType":5123,
			"count":203982,
			"type":"SCALAR"
		}
	],
	"bufferViews":[
		{
			"buffer":0,
			"byteLength":470940,
			"byteOffset":0,
			"target":34962
		},
		{
			"buffer":0,
			"byteLength":470940,
			"byteOffset":470940,
			"target":34962
		},
		{
			"buffer":0,
			"byteLength":313960,
			"byteOffset":941880,
			"target":34962
		},
		{
			"buffer":0,
			"byteLength":407964,
			"byteOffset":1255840,
			"target":34963
		}
	],
	"buffers":[
		{
			"byteLength":1663804,
			"uri":"Front_SinglePleats.bin"
		}
	]
}
