{
	"asset":{
		"generator":"Khronos glTF Blender I/O v4.1.63",
		"version":"2.0"
	},
	"scene":0,
	"scenes":[
		{
			"extras":{
				"NWBusyDrawing":"",
				"NWLazySource":"Image Texture.003",
				"NWLazyTarget":"Bump",
				"NWSourceSocket":1
			},
			"name":"Scene",
			"nodes":[
				0
			]
		}
	],
	"nodes":[
		{
			"mesh":0,
			"name":"Front_Nopleats",
			"rotation":[
				0.7071068286895752,
				0,
				0,
				0.7071068286895752
			],
			"scale":[
				0.009999999776482582,
				0.009999999776482582,
				0.009999999776482582
			]
		}
	],
	"meshes":[
		{
			"name":"Mesh.004",
			"primitives":[
				{
					"attributes":{
						"POSITION":0,
						"NORMAL":1,
						"TEXCOORD_0":2
					},
					"indices":3
				}
			]
		}
	],
	"accessors":[
		{
			"bufferView":0,
			"componentType":5126,
			"count":70628,
			"max":[
				18.40574836730957,
				14.028950691223145,
				-13.629615783691406
			],
			"min":[
				-18.42184066772461,
				-11.19803524017334,
				-112.80474853515625
			],
			"type":"VEC3"
		},
		{
			"bufferView":1,
			"componentType":5126,
			"count":70628,
			"type":"VEC3"
		},
		{
			"bufferView":2,
			"componentType":5126,
			"count":70628,
			"type":"VEC2"
		},
		{
			"bufferView":3,
			"componentType":5125,
			"count":172620,
			"type":"SCALAR"
		}
	],
	"bufferViews":[
		{
			"buffer":0,
			"byteLength":847536,
			"byteOffset":0,
			"target":34962
		},
		{
			"buffer":0,
			"byteLength":847536,
			"byteOffset":847536,
			"target":34962
		},
		{
			"buffer":0,
			"byteLength":565024,
			"byteOffset":1695072,
			"target":34962
		},
		{
			"buffer":0,
			"byteLength":690480,
			"byteOffset":2260096,
			"target":34963
		}
	],
	"buffers":[
		{
			"byteLength":2950576,
			"uri":"Front_NoPleats.bin"
		}
	]
}
