{
	"asset":{
		"generator":"Khronos glTF Blender I/O v4.1.63",
		"version":"2.0"
	},
	"scene":0,
	"scenes":[
		{
			"extras":{
				"NWBusyDrawing":"",
				"NWLazySource":"Image Texture.003",
				"NWLazyTarget":"Bump",
				"NWSourceSocket":1
			},
			"name":"Scene",
			"nodes":[
				0
			]
		}
	],
	"nodes":[
		{
			"mesh":0,
			"name":"Pants_Back",
			"rotation":[
				0.7071068286895752,
				0,
				0,
				0.7071068286895752
			],
			"scale":[
				0.009999999776482582,
				0.009999999776482582,
				0.009999999776482582
			]
		}
	],
	"meshes":[
		{
			"name":"Mesh.006",
			"primitives":[
				{
					"attributes":{
						"POSITION":0,
						"NORMAL":1,
						"TEXCOORD_0":2
					},
					"indices":3
				}
			]
		}
	],
	"accessors":[
		{
			"bufferView":0,
			"componentType":5126,
			"count":41034,
			"max":[
				18.459842681884766,
				6.535300254821777,
				-13.188192367553711
			],
			"min":[
				-18.501466751098633,
				-17.44173812866211,
				-112.7932357788086
			],
			"type":"VEC3"
		},
		{
			"bufferView":1,
			"componentType":5126,
			"count":41034,
			"type":"VEC3"
		},
		{
			"bufferView":2,
			"componentType":5126,
			"count":41034,
			"type":"VEC2"
		},
		{
			"bufferView":3,
			"componentType":5123,
			"count":217812,
			"type":"SCALAR"
		}
	],
	"bufferViews":[
		{
			"buffer":0,
			"byteLength":492408,
			"byteOffset":0,
			"target":34962
		},
		{
			"buffer":0,
			"byteLength":492408,
			"byteOffset":492408,
			"target":34962
		},
		{
			"buffer":0,
			"byteLength":328272,
			"byteOffset":984816,
			"target":34962
		},
		{
			"buffer":0,
			"byteLength":435624,
			"byteOffset":1313088,
			"target":34963
		}
	],
	"buffers":[
		{
			"byteLength":1748712,
			"uri":"Pants_Back.bin"
		}
	]
}
