{
	"asset":{
		"generator":"Khronos glTF Blender I/O v4.1.63",
		"version":"2.0"
	},
	"scene":0,
	"scenes":[
		{
			"extras":{
				"NWBusyDrawing":"",
				"NWLazySource":"Image Texture.003",
				"NWLazyTarget":"Bump",
				"NWSourceSocket":1
			},
			"name":"Scene",
			"nodes":[
				0
			]
		}
	],
	"nodes":[
		{
			"mesh":0,
			"name":"Pockets_Flaps",
			"rotation":[
				0.7071068286895752,
				0,
				0,
				0.7071068286895752
			],
			"scale":[
				0.009999999776482582,
				0.009999999776482582,
				0.009999999776482582
			]
		}
	],
	"meshes":[
		{
			"name":"Mesh",
			"primitives":[
				{
					"attributes":{
						"POSITION":0,
						"NORMAL":1,
						"TEXCOORD_0":2
					},
					"indices":3
				}
			]
		}
	],
	"accessors":[
		{
			"bufferView":0,
			"componentType":5126,
			"count":1720,
			"max":[
				14.433878898620605,
				-7.453256130218506,
				-103.0680160522461
			],
			"min":[
				-14.426897048950195,
				-13.668327331542969,
				-106.7061996459961
			],
			"type":"VEC3"
		},
		{
			"bufferView":1,
			"componentType":5126,
			"count":1720,
			"type":"VEC3"
		},
		{
			"bufferView":2,
			"componentType":5126,
			"count":1720,
			"type":"VEC2"
		},
		{
			"bufferView":3,
			"componentType":5123,
			"count":7872,
			"type":"SCALAR"
		}
	],
	"bufferViews":[
		{
			"buffer":0,
			"byteLength":20640,
			"byteOffset":0,
			"target":34962
		},
		{
			"buffer":0,
			"byteLength":20640,
			"byteOffset":20640,
			"target":34962
		},
		{
			"buffer":0,
			"byteLength":13760,
			"byteOffset":41280,
			"target":34962
		},
		{
			"buffer":0,
			"byteLength":15744,
			"byteOffset":55040,
			"target":34963
		}
	],
	"buffers":[
		{
			"byteLength":70784,
			"uri":"Pockets_Flaps.bin"
		}
	]
}
