{
	"asset":{
		"generator":"Khronos glTF Blender I/O v4.1.63",
		"version":"2.0"
	},
	"scene":0,
	"scenes":[
		{
			"extras":{
				"NWBusyDrawing":"",
				"NWLazySource":"Image Texture.003",
				"NWLazyTarget":"Bump",
				"NWSourceSocket":1
			},
			"name":"Scene",
			"nodes":[
				0
			]
		}
	],
	"nodes":[
		{
			"mesh":0,
			"name":"WaistBand",
			"rotation":[
				0.7071068286895752,
				0,
				0,
				0.7071068286895752
			],
			"scale":[
				0.009999999776482582,
				0.009999999776482582,
				0.009999999776482582
			]
		}
	],
	"meshes":[
		{
			"name":"Mesh.005",
			"primitives":[
				{
					"attributes":{
						"POSITION":0,
						"NORMAL":1,
						"TEXCOORD_0":2
					},
					"indices":3
				}
			]
		}
	],
	"accessors":[
		{
			"bufferView":0,
			"componentType":5126,
			"count":12246,
			"max":[
				17.087669372558594,
				14.015585899353027,
				-110.7841796875
			],
			"min":[
				-17.13503646850586,
				-12.994001388549805,
				-115.4783935546875
			],
			"type":"VEC3"
		},
		{
			"bufferView":1,
			"componentType":5126,
			"count":12246,
			"type":"VEC3"
		},
		{
			"bufferView":2,
			"componentType":5126,
			"count":12246,
			"type":"VEC2"
		},
		{
			"bufferView":3,
			"componentType":5123,
			"count":54372,
			"type":"SCALAR"
		}
	],
	"bufferViews":[
		{
			"buffer":0,
			"byteLength":146952,
			"byteOffset":0,
			"target":34962
		},
		{
			"buffer":0,
			"byteLength":146952,
			"byteOffset":146952,
			"target":34962
		},
		{
			"buffer":0,
			"byteLength":97968,
			"byteOffset":293904,
			"target":34962
		},
		{
			"buffer":0,
			"byteLength":108744,
			"byteOffset":391872,
			"target":34963
		}
	],
	"buffers":[
		{
			"byteLength":500616,
			"uri":"WaistBand.bin"
		}
	]
}
