{
	"asset":{
		"generator":"Khronos glTF Blender I/O v4.1.63",
		"version":"2.0"
	},
	"scene":0,
	"scenes":[
		{
			"extras":{
				"NWBusyDrawing":"",
				"NWLazySource":"Image Texture.003",
				"NWLazyTarget":"Bump",
				"NWSourceSocket":1
			},
			"name":"Scene",
			"nodes":[
				0
			]
		}
	],
	"nodes":[
		{
			"mesh":0,
			"name":"4on2_pocket_6",
			"rotation":[
				0.7071068286895752,
				0,
				0,
				0.7071068286895752
			],
			"scale":[
				0.009999999776482582,
				0.009999999776482582,
				0.009999999776482582
			]
		}
	],
	"meshes":[
		{
			"name":"Mesh.036",
			"primitives":[
				{
					"attributes":{
						"POSITION":0,
						"NORMAL":1,
						"TEXCOORD_0":2
					},
					"indices":3
				}
			]
		}
	],
	"accessors":[
		{
			"bufferView":0,
			"componentType":5126,
			"count":757,
			"max":[
				16.859970092773438,
				11.867409706115723,
				-143.96499633789062
			],
			"min":[
				-16.123350143432617,
				5.214399337768555,
				-147.0834197998047
			],
			"type":"VEC3"
		},
		{
			"bufferView":1,
			"componentType":5126,
			"count":757,
			"type":"VEC3"
		},
		{
			"bufferView":2,
			"componentType":5126,
			"count":757,
			"type":"VEC2"
		},
		{
			"bufferView":3,
			"componentType":5123,
			"count":3312,
			"type":"SCALAR"
		}
	],
	"bufferViews":[
		{
			"buffer":0,
			"byteLength":9084,
			"byteOffset":0,
			"target":34962
		},
		{
			"buffer":0,
			"byteLength":9084,
			"byteOffset":9084,
			"target":34962
		},
		{
			"buffer":0,
			"byteLength":6056,
			"byteOffset":18168,
			"target":34962
		},
		{
			"buffer":0,
			"byteLength":6624,
			"byteOffset":24224,
			"target":34963
		}
	],
	"buffers":[
		{
			"byteLength":30848,
			"uri":"4on2_pocket_6.bin"
		}
	]
}
