{
	"asset":{
		"generator":"Khronos glTF Blender I/O v4.1.63",
		"version":"2.0"
	},
	"scene":0,
	"scenes":[
		{
			"extras":{
				"NWBusyDrawing":"",
				"NWLazySource":"Image Texture.003",
				"NWLazyTarget":"Bump",
				"NWSourceSocket":1
			},
			"name":"Scene",
			"nodes":[
				0
			]
		}
	],
	"nodes":[
		{
			"mesh":0,
			"name":"4on2_pocket_3",
			"rotation":[
				0.7071068286895752,
				0,
				0,
				0.7071068286895752
			],
			"scale":[
				0.009999999776482582,
				0.009999999776482582,
				0.009999999776482582
			]
		}
	],
	"meshes":[
		{
			"name":"Mesh.039",
			"primitives":[
				{
					"attributes":{
						"POSITION":0,
						"NORMAL":1,
						"TEXCOORD_0":2
					},
					"indices":3
				}
			]
		}
	],
	"accessors":[
		{
			"bufferView":0,
			"componentType":5126,
			"count":2269,
			"max":[
				16.01952362060547,
				13.846539497375488,
				-100.66473388671875
			],
			"min":[
				-15.106603622436523,
				8.294559478759766,
				-111.1637954711914
			],
			"type":"VEC3"
		},
		{
			"bufferView":1,
			"componentType":5126,
			"count":2269,
			"type":"VEC3"
		},
		{
			"bufferView":2,
			"componentType":5126,
			"count":2269,
			"type":"VEC2"
		},
		{
			"bufferView":3,
			"componentType":5123,
			"count":11136,
			"type":"SCALAR"
		}
	],
	"bufferViews":[
		{
			"buffer":0,
			"byteLength":27228,
			"byteOffset":0,
			"target":34962
		},
		{
			"buffer":0,
			"byteLength":27228,
			"byteOffset":27228,
			"target":34962
		},
		{
			"buffer":0,
			"byteLength":18152,
			"byteOffset":54456,
			"target":34962
		},
		{
			"buffer":0,
			"byteLength":22272,
			"byteOffset":72608,
			"target":34963
		}
	],
	"buffers":[
		{
			"byteLength":94880,
			"uri":"4on2_pocket_3.bin"
		}
	]
}
