{
	"asset":{
		"generator":"Khronos glTF Blender I/O v4.1.63",
		"version":"2.0"
	},
	"scene":0,
	"scenes":[
		{
			"extras":{
				"NWBusyDrawing":"",
				"NWLazySource":"Image Texture.003",
				"NWLazyTarget":"Bump",
				"NWSourceSocket":1
			},
			"name":"Scene",
			"nodes":[
				0
			]
		}
	],
	"nodes":[
		{
			"mesh":0,
			"name":"4on2_Lapels_1",
			"rotation":[
				0.7071068286895752,
				0,
				0,
				0.7071068286895752
			],
			"scale":[
				0.009999999776482582,
				0.009999999776482582,
				0.009999999776482582
			]
		}
	],
	"meshes":[
		{
			"name":"Mesh.045",
			"primitives":[
				{
					"attributes":{
						"POSITION":0,
						"NORMAL":1,
						"TEXCOORD_0":2
					},
					"indices":3
				}
			]
		}
	],
	"accessors":[
		{
			"bufferView":0,
			"componentType":5126,
			"count":6375,
			"max":[
				16.457365036010742,
				14.206324577331543,
				-128.66531372070312
			],
			"min":[
				-15.848129272460938,
				2.6899638175964355,
				-163.42227172851562
			],
			"type":"VEC3"
		},
		{
			"bufferView":1,
			"componentType":5126,
			"count":6375,
			"type":"VEC3"
		},
		{
			"bufferView":2,
			"componentType":5126,
			"count":6375,
			"type":"VEC2"
		},
		{
			"bufferView":3,
			"componentType":5123,
			"count":31536,
			"type":"SCALAR"
		}
	],
	"bufferViews":[
		{
			"buffer":0,
			"byteLength":76500,
			"byteOffset":0,
			"target":34962
		},
		{
			"buffer":0,
			"byteLength":76500,
			"byteOffset":76500,
			"target":34962
		},
		{
			"buffer":0,
			"byteLength":51000,
			"byteOffset":153000,
			"target":34962
		},
		{
			"buffer":0,
			"byteLength":63072,
			"byteOffset":204000,
			"target":34963
		}
	],
	"buffers":[
		{
			"byteLength":267072,
			"uri":"4on2_Lapels_1.bin"
		}
	]
}
