{
	"asset":{
		"generator":"Khronos glTF Blender I/O v4.1.63",
		"version":"2.0"
	},
	"scene":0,
	"scenes":[
		{
			"extras":{
				"NWBusyDrawing":"",
				"NWLazySource":"Image Texture.003",
				"NWLazyTarget":"Bump",
				"NWSourceSocket":1
			},
			"name":"Scene",
			"nodes":[
				0
			]
		}
	],
	"nodes":[
		{
			"mesh":0,
			"name":"4on2_pocket_8",
			"rotation":[
				0.7071068286895752,
				0,
				0,
				0.7071068286895752
			],
			"scale":[
				0.009999999776482582,
				0.009999999776482582,
				0.009999999776482582
			]
		}
	],
	"meshes":[
		{
			"name":"Mesh.034",
			"primitives":[
				{
					"attributes":{
						"POSITION":0,
						"NORMAL":1,
						"TEXCOORD_0":2
					},
					"indices":3
				}
			]
		}
	],
	"accessors":[
		{
			"bufferView":0,
			"componentType":5126,
			"count":1404,
			"max":[
				15.117718696594238,
				13.732028007507324,
				-103.64741516113281
			],
			"min":[
				-14.029606819152832,
				9.052717208862305,
				-108.40174865722656
			],
			"type":"VEC3"
		},
		{
			"bufferView":1,
			"componentType":5126,
			"count":1404,
			"type":"VEC3"
		},
		{
			"bufferView":2,
			"componentType":5126,
			"count":1404,
			"type":"VEC2"
		},
		{
			"bufferView":3,
			"componentType":5123,
			"count":6228,
			"type":"SCALAR"
		}
	],
	"bufferViews":[
		{
			"buffer":0,
			"byteLength":16848,
			"byteOffset":0,
			"target":34962
		},
		{
			"buffer":0,
			"byteLength":16848,
			"byteOffset":16848,
			"target":34962
		},
		{
			"buffer":0,
			"byteLength":11232,
			"byteOffset":33696,
			"target":34962
		},
		{
			"buffer":0,
			"byteLength":12456,
			"byteOffset":44928,
			"target":34963
		}
	],
	"buffers":[
		{
			"byteLength":57384,
			"uri":"4on2_pocket_8.bin"
		}
	]
}
