{
	"asset":{
		"generator":"Khronos glTF Blender I/O v4.1.63",
		"version":"2.0"
	},
	"scene":0,
	"scenes":[
		{
			"extras":{
				"NWBusyDrawing":"",
				"NWLazySource":"Image Texture.003",
				"NWLazyTarget":"Bump",
				"NWSourceSocket":1
			},
			"name":"Scene",
			"nodes":[
				0
			]
		}
	],
	"nodes":[
		{
			"mesh":0,
			"name":"4on2_Collar_1",
			"rotation":[
				0.7071068286895752,
				0,
				0,
				0.7071068286895752
			],
			"scale":[
				0.009999999776482582,
				0.009999999776482582,
				0.009999999776482582
			]
		}
	],
	"meshes":[
		{
			"name":"Mesh.046",
			"primitives":[
				{
					"attributes":{
						"POSITION":0,
						"NORMAL":1,
						"TEXCOORD_0":2
					},
					"indices":3
				}
			]
		}
	],
	"accessors":[
		{
			"bufferView":0,
			"componentType":5126,
			"count":7350,
			"max":[
				13.310154914855957,
				3.893292188644409,
				-159.6604461669922
			],
			"min":[
				-12.650045394897461,
				-8.315564155578613,
				-169.32212829589844
			],
			"type":"VEC3"
		},
		{
			"bufferView":1,
			"componentType":5126,
			"count":7350,
			"type":"VEC3"
		},
		{
			"bufferView":2,
			"componentType":5126,
			"count":7350,
			"type":"VEC2"
		},
		{
			"bufferView":3,
			"componentType":5123,
			"count":35244,
			"type":"SCALAR"
		}
	],
	"bufferViews":[
		{
			"buffer":0,
			"byteLength":88200,
			"byteOffset":0,
			"target":34962
		},
		{
			"buffer":0,
			"byteLength":88200,
			"byteOffset":88200,
			"target":34962
		},
		{
			"buffer":0,
			"byteLength":58800,
			"byteOffset":176400,
			"target":34962
		},
		{
			"buffer":0,
			"byteLength":70488,
			"byteOffset":235200,
			"target":34963
		}
	],
	"buffers":[
		{
			"byteLength":305688,
			"uri":"4on2_Collar_1.bin"
		}
	]
}
