{
	"asset":{
		"generator":"Khronos glTF Blender I/O v4.1.63",
		"version":"2.0"
	},
	"scene":0,
	"scenes":[
		{
			"extras":{
				"NWBusyDrawing":"",
				"NWLazySource":"Image Texture.003",
				"NWLazyTarget":"Bump",
				"NWSourceSocket":1
			},
			"name":"Scene",
			"nodes":[
				0
			]
		}
	],
	"nodes":[
		{
			"mesh":0,
			"name":"4on2_Lapels_2",
			"rotation":[
				0.7071068286895752,
				0,
				0,
				0.7071068286895752
			],
			"scale":[
				0.009999999776482582,
				0.009999999776482582,
				0.009999999776482582
			]
		}
	],
	"meshes":[
		{
			"name":"Mesh.044",
			"primitives":[
				{
					"attributes":{
						"POSITION":0,
						"NORMAL":1,
						"TEXCOORD_0":2
					},
					"indices":3
				}
			]
		}
	],
	"accessors":[
		{
			"bufferView":0,
			"componentType":5126,
			"count":5758,
			"max":[
				13.313680648803711,
				14.211552619934082,
				-128.66561889648438
			],
			"min":[
				-12.650740623474121,
				2.0678305625915527,
				-163.35276794433594
			],
			"type":"VEC3"
		},
		{
			"bufferView":1,
			"componentType":5126,
			"count":5758,
			"type":"VEC3"
		},
		{
			"bufferView":2,
			"componentType":5126,
			"count":5758,
			"type":"VEC2"
		},
		{
			"bufferView":3,
			"componentType":5123,
			"count":28200,
			"type":"SCALAR"
		}
	],
	"bufferViews":[
		{
			"buffer":0,
			"byteLength":69096,
			"byteOffset":0,
			"target":34962
		},
		{
			"buffer":0,
			"byteLength":69096,
			"byteOffset":69096,
			"target":34962
		},
		{
			"buffer":0,
			"byteLength":46064,
			"byteOffset":138192,
			"target":34962
		},
		{
			"buffer":0,
			"byteLength":56400,
			"byteOffset":184256,
			"target":34963
		}
	],
	"buffers":[
		{
			"byteLength":240656,
			"uri":"4on2_Lapels_2.bin"
		}
	]
}
