{
	"asset":{
		"generator":"Khronos glTF Blender I/O v4.1.63",
		"version":"2.0"
	},
	"scene":0,
	"scenes":[
		{
			"extras":{
				"NWBusyDrawing":"",
				"NWLazySource":"Image Texture.003",
				"NWLazyTarget":"Bump",
				"NWSourceSocket":1
			},
			"name":"Scene",
			"nodes":[
				0
			]
		}
	],
	"nodes":[
		{
			"mesh":0,
			"name":"4on2_Back_3",
			"rotation":[
				0.7071068286895752,
				0,
				0,
				0.7071068286895752
			],
			"scale":[
				0.009999999776482582,
				0.009999999776482582,
				0.009999999776482582
			]
		}
	],
	"meshes":[
		{
			"name":"Mesh.047",
			"primitives":[
				{
					"attributes":{
						"POSITION":0,
						"NORMAL":1,
						"TEXCOORD_0":2
					},
					"indices":3
				}
			]
		}
	],
	"accessors":[
		{
			"bufferView":0,
			"componentType":5126,
			"count":26068,
			"max":[
				22.7745304107666,
				-1.8710905313491821,
				-93.4693374633789
			],
			"min":[
				-23.059682846069336,
				-14.932313919067383,
				-166.78860473632812
			],
			"type":"VEC3"
		},
		{
			"bufferView":1,
			"componentType":5126,
			"count":26068,
			"type":"VEC3"
		},
		{
			"bufferView":2,
			"componentType":5126,
			"count":26068,
			"type":"VEC2"
		},
		{
			"bufferView":3,
			"componentType":5123,
			"count":137136,
			"type":"SCALAR"
		}
	],
	"bufferViews":[
		{
			"buffer":0,
			"byteLength":312816,
			"byteOffset":0,
			"target":34962
		},
		{
			"buffer":0,
			"byteLength":312816,
			"byteOffset":312816,
			"target":34962
		},
		{
			"buffer":0,
			"byteLength":208544,
			"byteOffset":625632,
			"target":34962
		},
		{
			"buffer":0,
			"byteLength":274272,
			"byteOffset":834176,
			"target":34963
		}
	],
	"buffers":[
		{
			"byteLength":1108448,
			"uri":"4on2_Back_3.bin"
		}
	]
}
