{
	"asset":{
		"generator":"Khronos glTF Blender I/O v4.1.63",
		"version":"2.0"
	},
	"scene":0,
	"scenes":[
		{
			"extras":{
				"NWBusyDrawing":"",
				"NWLazySource":"Image Texture.003",
				"NWLazyTarget":"Bump",
				"NWSourceSocket":1
			},
			"name":"Scene",
			"nodes":[
				0
			]
		}
	],
	"nodes":[
		{
			"mesh":0,
			"name":"4on2_Back_1",
			"rotation":[
				0.7071068286895752,
				0,
				0,
				0.7071068286895752
			],
			"scale":[
				0.009999999776482582,
				0.009999999776482582,
				0.009999999776482582
			]
		}
	],
	"meshes":[
		{
			"name":"Mesh.049",
			"primitives":[
				{
					"attributes":{
						"POSITION":0,
						"NORMAL":1,
						"TEXCOORD_0":2
					},
					"indices":3
				}
			]
		}
	],
	"accessors":[
		{
			"bufferView":0,
			"componentType":5126,
			"count":26223,
			"max":[
				22.779504776000977,
				-1.8742046356201172,
				-93.48367309570312
			],
			"min":[
				-23.05959701538086,
				-14.928753852844238,
				-166.78890991210938
			],
			"type":"VEC3"
		},
		{
			"bufferView":1,
			"componentType":5126,
			"count":26223,
			"type":"VEC3"
		},
		{
			"bufferView":2,
			"componentType":5126,
			"count":26223,
			"type":"VEC2"
		},
		{
			"bufferView":3,
			"componentType":5123,
			"count":137784,
			"type":"SCALAR"
		}
	],
	"bufferViews":[
		{
			"buffer":0,
			"byteLength":314676,
			"byteOffset":0,
			"target":34962
		},
		{
			"buffer":0,
			"byteLength":314676,
			"byteOffset":314676,
			"target":34962
		},
		{
			"buffer":0,
			"byteLength":209784,
			"byteOffset":629352,
			"target":34962
		},
		{
			"buffer":0,
			"byteLength":275568,
			"byteOffset":839136,
			"target":34963
		}
	],
	"buffers":[
		{
			"byteLength":1114704,
			"uri":"4on2_Back_1.bin"
		}
	]
}
