{
	"asset":{
		"generator":"Khronos glTF Blender I/O v4.1.63",
		"version":"2.0"
	},
	"scene":0,
	"scenes":[
		{
			"extras":{
				"NWBusyDrawing":"",
				"NWLazySource":"Image Texture.003",
				"NWLazyTarget":"Bump",
				"NWSourceSocket":1
			},
			"name":"Scene",
			"nodes":[
				0
			]
		}
	],
	"nodes":[
		{
			"mesh":0,
			"name":"4on2_Lapels_3",
			"rotation":[
				0.7071068286895752,
				0,
				0,
				0.7071068286895752
			],
			"scale":[
				0.009999999776482582,
				0.009999999776482582,
				0.009999999776482582
			]
		}
	],
	"meshes":[
		{
			"name":"Mesh.043",
			"primitives":[
				{
					"attributes":{
						"POSITION":0,
						"NORMAL":1,
						"TEXCOORD_0":2
					},
					"indices":3
				}
			]
		}
	],
	"accessors":[
		{
			"bufferView":0,
			"componentType":5126,
			"count":5716,
			"max":[
				12.82971477508545,
				14.213827133178711,
				-128.66624450683594
			],
			"min":[
				-11.834918022155762,
				2.065397262573242,
				-163.36256408691406
			],
			"type":"VEC3"
		},
		{
			"bufferView":1,
			"componentType":5126,
			"count":5716,
			"type":"VEC3"
		},
		{
			"bufferView":2,
			"componentType":5126,
			"count":5716,
			"type":"VEC2"
		},
		{
			"bufferView":3,
			"componentType":5123,
			"count":28032,
			"type":"SCALAR"
		}
	],
	"bufferViews":[
		{
			"buffer":0,
			"byteLength":68592,
			"byteOffset":0,
			"target":34962
		},
		{
			"buffer":0,
			"byteLength":68592,
			"byteOffset":68592,
			"target":34962
		},
		{
			"buffer":0,
			"byteLength":45728,
			"byteOffset":137184,
			"target":34962
		},
		{
			"buffer":0,
			"byteLength":56064,
			"byteOffset":182912,
			"target":34963
		}
	],
	"buffers":[
		{
			"byteLength":238976,
			"uri":"4on2_Lapels_3.bin"
		}
	]
}
