{
	"asset":{
		"generator":"Khronos glTF Blender I/O v4.1.63",
		"version":"2.0"
	},
	"scene":0,
	"scenes":[
		{
			"extras":{
				"NWBusyDrawing":"",
				"NWLazySource":"Image Texture.003",
				"NWLazyTarget":"Bump",
				"NWSourceSocket":1
			},
			"name":"Scene",
			"nodes":[
				0
			]
		}
	],
	"nodes":[
		{
			"mesh":0,
			"name":"4on2_BacK_2",
			"rotation":[
				0.7071068286895752,
				0,
				0,
				0.7071068286895752
			],
			"scale":[
				0.009999999776482582,
				0.009999999776482582,
				0.009999999776482582
			]
		}
	],
	"meshes":[
		{
			"name":"Mesh.048",
			"primitives":[
				{
					"attributes":{
						"POSITION":0,
						"NORMAL":1,
						"TEXCOORD_0":2
					},
					"indices":3
				}
			]
		}
	],
	"accessors":[
		{
			"bufferView":0,
			"componentType":5126,
			"count":26604,
			"max":[
				22.774526596069336,
				-1.8723746538162231,
				-93.13347625732422
			],
			"min":[
				-23.058917999267578,
				-14.930936813354492,
				-166.78848266601562
			],
			"type":"VEC3"
		},
		{
			"bufferView":1,
			"componentType":5126,
			"count":26604,
			"type":"VEC3"
		},
		{
			"bufferView":2,
			"componentType":5126,
			"count":26604,
			"type":"VEC2"
		},
		{
			"bufferView":3,
			"componentType":5123,
			"count":139260,
			"type":"SCALAR"
		}
	],
	"bufferViews":[
		{
			"buffer":0,
			"byteLength":319248,
			"byteOffset":0,
			"target":34962
		},
		{
			"buffer":0,
			"byteLength":319248,
			"byteOffset":319248,
			"target":34962
		},
		{
			"buffer":0,
			"byteLength":212832,
			"byteOffset":638496,
			"target":34962
		},
		{
			"buffer":0,
			"byteLength":278520,
			"byteOffset":851328,
			"target":34963
		}
	],
	"buffers":[
		{
			"byteLength":1129848,
			"uri":"4on2_Back_2.bin"
		}
	]
}
