{
	"asset":{
		"generator":"Khronos glTF Blender I/O v4.1.63",
		"version":"2.0"
	},
	"scene":0,
	"scenes":[
		{
			"extras":{
				"NWBusyDrawing":"",
				"NWLazySource":"Image Texture.003",
				"NWLazyTarget":"Bump",
				"NWSourceSocket":1
			},
			"name":"Scene",
			"nodes":[
				0
			]
		}
	],
	"nodes":[
		{
			"mesh":0,
			"name":"4on2_Sleeve_1",
			"rotation":[
				0.7071068286895752,
				0,
				0,
				0.7071068286895752
			],
			"scale":[
				0.009999999776482582,
				0.009999999776482582,
				0.009999999776482582
			]
		}
	],
	"meshes":[
		{
			"name":"Mesh.042",
			"primitives":[
				{
					"attributes":{
						"POSITION":0,
						"NORMAL":1,
						"TEXCOORD_0":2
					},
					"indices":3
				}
			]
		}
	],
	"accessors":[
		{
			"bufferView":0,
			"componentType":5126,
			"count":106872,
			"max":[
				29.86098861694336,
				15.101011276245117,
				-95.15776062011719
			],
			"min":[
				-31.064151763916016,
				-14.841900825500488,
				-160.48329162597656
			],
			"type":"VEC3"
		},
		{
			"bufferView":1,
			"componentType":5126,
			"count":106872,
			"type":"VEC3"
		},
		{
			"bufferView":2,
			"componentType":5126,
			"count":106872,
			"type":"VEC2"
		},
		{
			"bufferView":3,
			"componentType":5125,
			"count":239688,
			"type":"SCALAR"
		}
	],
	"bufferViews":[
		{
			"buffer":0,
			"byteLength":1282464,
			"byteOffset":0,
			"target":34962
		},
		{
			"buffer":0,
			"byteLength":1282464,
			"byteOffset":1282464,
			"target":34962
		},
		{
			"buffer":0,
			"byteLength":854976,
			"byteOffset":2564928,
			"target":34962
		},
		{
			"buffer":0,
			"byteLength":958752,
			"byteOffset":3419904,
			"target":34963
		}
	],
	"buffers":[
		{
			"byteLength":4378656,
			"uri":"4on2_Sleeve_1.bin"
		}
	]
}
