{
	"asset":{
		"generator":"Khronos glTF Blender I/O v4.1.63",
		"version":"2.0"
	},
	"scene":0,
	"scenes":[
		{
			"extras":{
				"NWBusyDrawing":"",
				"NWLazySource":"Image Texture.003",
				"NWLazyTarget":"Bump",
				"NWSourceSocket":1
			},
			"name":"Scene",
			"nodes":[
				0
			]
		}
	],
	"nodes":[
		{
			"mesh":0,
			"name":"4on2_Front_1",
			"rotation":[
				0.7071068286895752,
				0,
				0,
				0.7071068286895752
			],
			"scale":[
				0.009999999776482582,
				0.009999999776482582,
				0.009999999776482582
			]
		}
	],
	"meshes":[
		{
			"name":"Mesh.050",
			"primitives":[
				{
					"attributes":{
						"POSITION":0,
						"NORMAL":1,
						"TEXCOORD_0":2
					},
					"indices":3
				}
			]
		}
	],
	"accessors":[
		{
			"bufferView":0,
			"componentType":5126,
			"count":93398,
			"max":[
				23.205158233642578,
				15.482595443725586,
				-93.55819702148438
			],
			"min":[
				-22.926259994506836,
				-12.454752922058105,
				-165.81597900390625
			],
			"type":"VEC3"
		},
		{
			"bufferView":1,
			"componentType":5126,
			"count":93398,
			"type":"VEC3"
		},
		{
			"bufferView":2,
			"componentType":5126,
			"count":93398,
			"type":"VEC2"
		},
		{
			"bufferView":3,
			"componentType":5125,
			"count":221484,
			"type":"SCALAR"
		}
	],
	"bufferViews":[
		{
			"buffer":0,
			"byteLength":1120776,
			"byteOffset":0,
			"target":34962
		},
		{
			"buffer":0,
			"byteLength":1120776,
			"byteOffset":1120776,
			"target":34962
		},
		{
			"buffer":0,
			"byteLength":747184,
			"byteOffset":2241552,
			"target":34962
		},
		{
			"buffer":0,
			"byteLength":885936,
			"byteOffset":2988736,
			"target":34963
		}
	],
	"buffers":[
		{
			"byteLength":3874672,
			"uri":"4on2_Front_1.bin"
		}
	]
}
