{
	"asset":{
		"generator":"Khronos glTF Blender I/O v4.1.63",
		"version":"2.0"
	},
	"scene":0,
	"scenes":[
		{
			"extras":{
				"NWBusyDrawing":"",
				"NWLazySource":"Image Texture.003",
				"NWLazyTarget":"Bump",
				"NWSourceSocket":1
			},
			"name":"Scene",
			"nodes":[
				0
			]
		}
	],
	"nodes":[
		{
			"mesh":0,
			"name":"4on2_pocket_4",
			"rotation":[
				0.7071068286895752,
				0,
				0,
				0.7071068286895752
			],
			"scale":[
				0.009999999776482582,
				0.009999999776482582,
				0.009999999776482582
			]
		}
	],
	"meshes":[
		{
			"name":"Mesh.038",
			"primitives":[
				{
					"attributes":{
						"POSITION":0,
						"NORMAL":1,
						"TEXCOORD_0":2
					},
					"indices":3
				}
			]
		}
	],
	"accessors":[
		{
			"bufferView":0,
			"componentType":5126,
			"count":2536,
			"max":[
				18.672426223754883,
				12.032143592834473,
				-140.70248413085938
			],
			"min":[
				-17.515487670898438,
				4.562135219573975,
				-152.11138916015625
			],
			"type":"VEC3"
		},
		{
			"bufferView":1,
			"componentType":5126,
			"count":2536,
			"type":"VEC3"
		},
		{
			"bufferView":2,
			"componentType":5126,
			"count":2536,
			"type":"VEC2"
		},
		{
			"bufferView":3,
			"componentType":5123,
			"count":12384,
			"type":"SCALAR"
		}
	],
	"bufferViews":[
		{
			"buffer":0,
			"byteLength":30432,
			"byteOffset":0,
			"target":34962
		},
		{
			"buffer":0,
			"byteLength":30432,
			"byteOffset":30432,
			"target":34962
		},
		{
			"buffer":0,
			"byteLength":20288,
			"byteOffset":60864,
			"target":34962
		},
		{
			"buffer":0,
			"byteLength":24768,
			"byteOffset":81152,
			"target":34963
		}
	],
	"buffers":[
		{
			"byteLength":105920,
			"uri":"4on2_pocket_4.bin"
		}
	]
}
