{
	"asset":{
		"generator":"Khronos glTF Blender I/O v4.1.63",
		"version":"2.0"
	},
	"scene":0,
	"scenes":[
		{
			"extras":{
				"NWBusyDrawing":"",
				"NWLazySource":"Image Texture.003",
				"NWLazyTarget":"Bump",
				"NWSourceSocket":1
			},
			"name":"Scene",
			"nodes":[
				0
			]
		}
	],
	"nodes":[
		{
			"mesh":0,
			"name":"4on2_pocket_2",
			"rotation":[
				0.7071068286895752,
				0,
				0,
				0.7071068286895752
			],
			"scale":[
				0.009999999776482582,
				0.009999999776482582,
				0.009999999776482582
			]
		}
	],
	"meshes":[
		{
			"name":"Mesh.040",
			"primitives":[
				{
					"attributes":{
						"POSITION":0,
						"NORMAL":1,
						"TEXCOORD_0":2
					},
					"indices":3
				}
			]
		}
	],
	"accessors":[
		{
			"bufferView":0,
			"componentType":5126,
			"count":2734,
			"max":[
				15.519027709960938,
				13.760714530944824,
				-98.6932601928711
			],
			"min":[
				-14.512260437011719,
				8.490801811218262,
				-109.36685943603516
			],
			"type":"VEC3"
		},
		{
			"bufferView":1,
			"componentType":5126,
			"count":2734,
			"type":"VEC3"
		},
		{
			"bufferView":2,
			"componentType":5126,
			"count":2734,
			"type":"VEC2"
		},
		{
			"bufferView":3,
			"componentType":5123,
			"count":13308,
			"type":"SCALAR"
		}
	],
	"bufferViews":[
		{
			"buffer":0,
			"byteLength":32808,
			"byteOffset":0,
			"target":34962
		},
		{
			"buffer":0,
			"byteLength":32808,
			"byteOffset":32808,
			"target":34962
		},
		{
			"buffer":0,
			"byteLength":21872,
			"byteOffset":65616,
			"target":34962
		},
		{
			"buffer":0,
			"byteLength":26616,
			"byteOffset":87488,
			"target":34963
		}
	],
	"buffers":[
		{
			"byteLength":114104,
			"uri":"4on2_pocket_2.bin"
		}
	]
}
